<svg xmlns="http://www.w3.org/2000/svg" width="840" height="240" viewBox="0 0 840 240" role="img" aria-label="Histogramme des commits par semaine sur les 26 dernières semaines" font-family="system-ui, 'Segoe UI', Ubuntu, Helvetica, Arial, sans-serif">
<title>Histogramme des commits par semaine sur les 26 dernières semaines</title>
<rect x="0.5" y="0.5" width="839" height="239" rx="12" fill="#fcfcfb" stroke="rgba(11,11,11,0.10)"/>
<text x="24" y="30" font-size="15" fill="#0b0b0b" font-weight="600">Activité du dépôt</text>
<text x="24" y="47" font-size="12" fill="#52514e">Commits par semaine — 26 dernières semaines</text>
<line x1="46" y1="206.0" x2="820" y2="206.0" stroke="#c3c2b7" stroke-width="1"/>
<text x="38" y="210" font-size="11" fill="#898781" text-anchor="end" font-variant-numeric="tabular-nums">0</text>
<line x1="46" y1="169.0" x2="820" y2="169.0" stroke="#e1e0d9" stroke-width="1"/>
<text x="38" y="173" font-size="11" fill="#898781" text-anchor="end" font-variant-numeric="tabular-nums">7</text>
<line x1="46" y1="132.0" x2="820" y2="132.0" stroke="#e1e0d9" stroke-width="1"/>
<text x="38" y="136" font-size="11" fill="#898781" text-anchor="end" font-variant-numeric="tabular-nums">14</text>
<line x1="46" y1="95.0" x2="820" y2="95.0" stroke="#e1e0d9" stroke-width="1"/>
<text x="38" y="99" font-size="11" fill="#898781" text-anchor="end" font-variant-numeric="tabular-nums">21</text>
<line x1="46" y1="58.0" x2="820" y2="58.0" stroke="#e1e0d9" stroke-width="1"/>
<text x="38" y="62" font-size="11" fill="#898781" text-anchor="end" font-variant-numeric="tabular-nums">28</text>
<text x="60.8846" y="228" font-size="11" fill="#898781" text-anchor="middle">janv.</text>
<text x="120.423" y="228" font-size="11" fill="#898781" text-anchor="middle">févr.</text>
<text x="239.5" y="228" font-size="11" fill="#898781" text-anchor="middle">mars</text>
<text x="388.346" y="228" font-size="11" fill="#898781" text-anchor="middle">avr.</text>
<text x="507.423" y="228" font-size="11" fill="#898781" text-anchor="middle">mai</text>
<text x="626.5" y="228" font-size="11" fill="#898781" text-anchor="middle">juin</text>
<text x="775.346" y="228" font-size="11" fill="#898781" text-anchor="middle">juil.</text>
<path d="M 795.89 206.00 V 62.00 Q 795.89 58.00 799.89 58.00 H 810.34 Q 814.34 58.00 814.34 62.00 V 206.00 Z" fill="#2a78d6"/>
<text x="805.115" y="52" font-size="11" fill="#0b0b0b" font-weight="600" text-anchor="middle">28</text>
</svg>
