<svg xmlns="http://www.w3.org/2000/svg" width="840" height="240" viewBox="0 0 840 240" role="img" aria-label="Histogramme des commits par semaine sur les 26 dernières semaines" font-family="system-ui, 'Segoe UI', Ubuntu, Helvetica, Arial, sans-serif">
<title>Histogramme des commits par semaine sur les 26 dernières semaines</title>
<rect x="0.5" y="0.5" width="839" height="239" rx="12" fill="#1a1a19" stroke="rgba(255,255,255,0.10)"/>
<text x="24" y="30" font-size="15" fill="#ffffff" font-weight="600">Activité du dépôt</text>
<text x="24" y="47" font-size="12" fill="#c3c2b7">Commits par semaine — 26 dernières semaines</text>
<line x1="46" y1="206.0" x2="820" y2="206.0" stroke="#383835" stroke-width="1"/>
<text x="38" y="210" font-size="11" fill="#898781" text-anchor="end" font-variant-numeric="tabular-nums">0</text>
<line x1="46" y1="169.0" x2="820" y2="169.0" stroke="#2c2c2a" stroke-width="1"/>
<text x="38" y="173" font-size="11" fill="#898781" text-anchor="end" font-variant-numeric="tabular-nums">10</text>
<line x1="46" y1="132.0" x2="820" y2="132.0" stroke="#2c2c2a" stroke-width="1"/>
<text x="38" y="136" font-size="11" fill="#898781" text-anchor="end" font-variant-numeric="tabular-nums">20</text>
<line x1="46" y1="95.0" x2="820" y2="95.0" stroke="#2c2c2a" stroke-width="1"/>
<text x="38" y="99" font-size="11" fill="#898781" text-anchor="end" font-variant-numeric="tabular-nums">30</text>
<line x1="46" y1="58.0" x2="820" y2="58.0" stroke="#2c2c2a" stroke-width="1"/>
<text x="38" y="62" font-size="11" fill="#898781" text-anchor="end" font-variant-numeric="tabular-nums">40</text>
<text x="60.8846" y="228" font-size="11" fill="#898781" text-anchor="middle">mars</text>
<text x="150.192" y="228" font-size="11" fill="#898781" text-anchor="middle">avr.</text>
<text x="269.269" y="228" font-size="11" fill="#898781" text-anchor="middle">mai</text>
<text x="388.346" y="228" font-size="11" fill="#898781" text-anchor="middle">juin</text>
<text x="537.192" y="228" font-size="11" fill="#898781" text-anchor="middle">juil.</text>
<path d="M 557.73 206.00 V 99.00 Q 557.73 95.00 561.73 95.00 H 572.19 Q 576.19 95.00 576.19 99.00 V 206.00 Z" fill="#3987e5"/>
<text x="566.962" y="89" font-size="11" fill="#ffffff" font-weight="600" text-anchor="middle">30</text>
<path d="M 587.50 206.00 V 198.90 Q 587.50 194.90 591.50 194.90 H 601.96 Q 605.96 194.90 605.96 198.90 V 206.00 Z" fill="#3987e5"/>
<path d="M 617.27 206.00 V 191.50 Q 617.27 187.50 621.27 187.50 H 631.73 Q 635.73 187.50 635.73 191.50 V 206.00 Z" fill="#3987e5"/>
<path d="M 647.04 206.00 V 184.10 Q 647.04 180.10 651.04 180.10 H 661.50 Q 665.50 180.10 665.50 184.10 V 206.00 Z" fill="#3987e5"/>
<text x="656.269" y="228" font-size="11" fill="#898781" text-anchor="middle">août</text>
<path d="M 676.81 206.00 V 154.50 Q 676.81 150.50 680.81 150.50 H 691.27 Q 695.27 150.50 695.27 154.50 V 206.00 Z" fill="#3987e5"/>
<path d="M 706.58 206.00 V 169.30 Q 706.58 165.30 710.58 165.30 H 721.04 Q 725.04 165.30 725.04 169.30 V 206.00 Z" fill="#3987e5"/>
<path d="M 736.35 206.00 V 198.90 Q 736.35 194.90 740.35 194.90 H 750.81 Q 754.81 194.90 754.81 198.90 V 206.00 Z" fill="#3987e5"/>
<path d="M 766.12 206.00 V 195.20 Q 766.12 191.20 770.12 191.20 H 780.57 Q 784.57 191.20 784.57 195.20 V 206.00 Z" fill="#3987e5"/>
<text x="805.115" y="228" font-size="11" fill="#898781" text-anchor="middle">sept.</text>
</svg>
