<svg xmlns="http://www.w3.org/2000/svg" width="408" height="240" viewBox="0 0 408 240" role="img" aria-label="Histogramme des commits par jour de la semaine" font-family="system-ui, 'Segoe UI', Ubuntu, Helvetica, Arial, sans-serif">
<title>Histogramme des commits par jour de la semaine</title>
<rect x="0.5" y="0.5" width="407" height="239" rx="12" fill="#1a1a19" stroke="rgba(255,255,255,0.10)"/>
<text x="24" y="30" font-size="15" fill="#ffffff" font-weight="600">Rythme hebdomadaire</text>
<text x="24" y="47" font-size="12" fill="#c3c2b7">Commits par jour de la semaine</text>
<line x1="46" y1="206.0" x2="388" y2="206.0" stroke="#383835" stroke-width="1"/>
<text x="38" y="210" font-size="11" fill="#898781" text-anchor="end" font-variant-numeric="tabular-nums">0</text>
<line x1="46" y1="169.0" x2="388" y2="169.0" stroke="#2c2c2a" stroke-width="1"/>
<text x="38" y="173" font-size="11" fill="#898781" text-anchor="end" font-variant-numeric="tabular-nums">4</text>
<line x1="46" y1="132.0" x2="388" y2="132.0" stroke="#2c2c2a" stroke-width="1"/>
<text x="38" y="136" font-size="11" fill="#898781" text-anchor="end" font-variant-numeric="tabular-nums">8</text>
<line x1="46" y1="95.0" x2="388" y2="95.0" stroke="#2c2c2a" stroke-width="1"/>
<text x="38" y="99" font-size="11" fill="#898781" text-anchor="end" font-variant-numeric="tabular-nums">12</text>
<line x1="46" y1="58.0" x2="388" y2="58.0" stroke="#2c2c2a" stroke-width="1"/>
<text x="38" y="62" font-size="11" fill="#898781" text-anchor="end" font-variant-numeric="tabular-nums">16</text>
<path d="M 58.43 206.00 V 89.75 Q 58.43 85.75 62.43 85.75 H 78.43 Q 82.43 85.75 82.43 89.75 V 206.00 Z" fill="#3987e5"/>
<text x="70.4286" y="79.75" font-size="11" fill="#ffffff" font-weight="600" text-anchor="middle">13</text>
<text x="70.4286" y="228" font-size="11" fill="#898781" text-anchor="middle">Lun</text>
<path d="M 107.29 206.00 V 126.75 Q 107.29 122.75 111.29 122.75 H 127.29 Q 131.29 122.75 131.29 126.75 V 206.00 Z" fill="#3987e5"/>
<text x="119.286" y="228" font-size="11" fill="#898781" text-anchor="middle">Mar</text>
<path d="M 156.14 206.00 V 191.50 Q 156.14 187.50 160.14 187.50 H 176.14 Q 180.14 187.50 180.14 191.50 V 206.00 Z" fill="#3987e5"/>
<text x="168.143" y="228" font-size="11" fill="#898781" text-anchor="middle">Mer</text>
<text x="217" y="228" font-size="11" fill="#898781" text-anchor="middle">Jeu</text>
<path d="M 253.86 206.00 V 173.00 Q 253.86 169.00 257.86 169.00 H 273.86 Q 277.86 169.00 277.86 173.00 V 206.00 Z" fill="#3987e5"/>
<text x="265.857" y="228" font-size="11" fill="#898781" text-anchor="middle">Ven</text>
<text x="314.714" y="228" font-size="11" fill="#898781" text-anchor="middle">Sam</text>
<text x="363.571" y="228" font-size="11" fill="#898781" text-anchor="middle">Dim</text>
</svg>
